<svg xmlns="http://www.w3.org/2000/svg" xmlns:xlink="http://www.w3.org/1999/xlink" width="130" zoomAndPan="magnify" viewBox="0 0 97.5 33.749998" height="45" preserveAspectRatio="xMidYMid meet" version="1.0"><defs><g/><clipPath id="f8f83bea78"><path d="M 11 2 L 30 2 L 30 25 L 11 25 Z M 11 2 " clip-rule="nonzero"/></clipPath><clipPath id="0cf8e395b6"><path d="M 10.441406 3.933594 L 27.378906 1.398438 L 30.683594 23.488281 L 13.746094 26.023438 Z M 10.441406 3.933594 " clip-rule="nonzero"/></clipPath><clipPath id="5f23bf444d"><path d="M 10.441406 3.933594 L 27.378906 1.398438 L 30.683594 23.488281 L 13.746094 26.023438 Z M 10.441406 3.933594 " clip-rule="nonzero"/></clipPath><clipPath id="9f69a66f09"><path d="M 16 10 L 25 10 L 25 22 L 16 22 Z M 16 10 " clip-rule="nonzero"/></clipPath><clipPath id="10f80ad10d"><path d="M 10.441406 3.933594 L 27.378906 1.398438 L 30.683594 23.488281 L 13.746094 26.023438 Z M 10.441406 3.933594 " clip-rule="nonzero"/></clipPath><clipPath id="105d37607e"><path d="M 10.441406 3.933594 L 27.378906 1.398438 L 30.683594 23.488281 L 13.746094 26.023438 Z M 10.441406 3.933594 " clip-rule="nonzero"/></clipPath><clipPath id="6ce09f456f"><path d="M 5.269531 23.453125 L 36.523438 23.453125 L 36.523438 32.253906 L 5.269531 32.253906 Z M 5.269531 23.453125 " clip-rule="nonzero"/></clipPath><clipPath id="0fe1a182fa"><path d="M 9.609375 23.453125 L 32.4375 23.453125 C 34.835938 23.453125 36.777344 25.398438 36.777344 27.792969 C 36.777344 30.1875 34.835938 32.132812 32.4375 32.132812 L 9.609375 32.132812 C 7.210938 32.132812 5.269531 30.1875 5.269531 27.792969 C 5.269531 25.398438 7.210938 23.453125 9.609375 23.453125 Z M 9.609375 23.453125 " clip-rule="nonzero"/></clipPath><clipPath id="7fd77681af"><path d="M 6.023438 24.898438 L 21.042969 24.898438 L 21.042969 30.695312 L 6.023438 30.695312 Z M 6.023438 24.898438 " clip-rule="nonzero"/></clipPath><clipPath id="cd30727351"><path d="M 8.921875 24.898438 L 18.125 24.898438 C 19.726562 24.898438 21.027344 26.195312 21.027344 27.796875 C 21.027344 29.398438 19.726562 30.695312 18.125 30.695312 L 8.921875 30.695312 C 7.320312 30.695312 6.023438 29.398438 6.023438 27.796875 C 6.023438 26.195312 7.320312 24.898438 8.921875 24.898438 Z M 8.921875 24.898438 " clip-rule="nonzero"/></clipPath><clipPath id="56f8c2a78d"><path d="M 0.0234375 0.898438 L 15.042969 0.898438 L 15.042969 6.695312 L 0.0234375 6.695312 Z M 0.0234375 0.898438 " clip-rule="nonzero"/></clipPath><clipPath id="517c8b3545"><path d="M 2.921875 0.898438 L 12.125 0.898438 C 13.726562 0.898438 15.027344 2.195312 15.027344 3.796875 C 15.027344 5.398438 13.726562 6.695312 12.125 6.695312 L 2.921875 6.695312 C 1.320312 6.695312 0.0234375 5.398438 0.0234375 3.796875 C 0.0234375 2.195312 1.320312 0.898438 2.921875 0.898438 Z M 2.921875 0.898438 " clip-rule="nonzero"/></clipPath><clipPath id="8d703dfbf0"><rect x="0" width="16" y="0" height="7"/></clipPath><clipPath id="c07aefc485"><path d="M 8 1 L 9.929688 1 L 9.929688 4 L 8 4 Z M 8 1 " clip-rule="nonzero"/></clipPath><clipPath id="e3f44ac9fa"><rect x="0" width="10" y="0" height="5"/></clipPath><clipPath id="d9da6d061f"><path d="M 0.0273438 1 L 2 1 L 2 4 L 0.0273438 4 Z M 0.0273438 1 " clip-rule="nonzero"/></clipPath><clipPath id="468af343e3"><path d="M 9 1 L 12.417969 1 L 12.417969 4 L 9 4 Z M 9 1 " clip-rule="nonzero"/></clipPath><clipPath id="05ee90ccf4"><rect x="0" width="13" y="0" height="6"/></clipPath><clipPath id="107bef0b0b"><path d="M 0.324219 10 L 5 10 L 5 16 L 0.324219 16 Z M 0.324219 10 " clip-rule="nonzero"/></clipPath><clipPath id="13ac499a5d"><rect x="0" width="52" y="0" height="17"/></clipPath></defs><g clip-path="url(#f8f83bea78)"><g clip-path="url(#0cf8e395b6)"><g clip-path="url(#5f23bf444d)"><path fill="#283389" d="M 27.640625 7.332031 C 27.175781 5.847656 26.355469 4.039062 25.441406 3.011719 C 25.03125 2.546875 24.589844 2.222656 24.121094 2.105469 C 23.566406 1.972656 23.035156 2.113281 22.554688 2.625 C 22.097656 3.109375 21.691406 3.976562 21.363281 5.34375 L 17.585938 5.910156 C 16.871094 4.699219 16.226562 3.988281 15.652344 3.660156 C 15.039062 3.308594 14.488281 3.332031 14 3.621094 C 13.585938 3.867188 13.257812 4.308594 13 4.871094 C 12.425781 6.132812 12.167969 8.125 12.164062 9.6875 C 11.765625 10.652344 11.617188 11.730469 11.78125 12.832031 L 11.867188 13.425781 C 12.234375 15.875 14.054688 17.761719 16.320312 18.34375 C 16.3125 18.8125 16.339844 19.269531 16.402344 19.703125 C 16.585938 21.015625 17.066406 22.140625 17.816406 22.972656 C 18.582031 23.828125 19.617188 24.371094 20.875 24.492188 C 21.320312 24.535156 21.792969 24.523438 22.292969 24.453125 L 22.304688 24.453125 C 22.804688 24.371094 23.261719 24.246094 23.671875 24.074219 C 24.839844 23.589844 25.667969 22.769531 26.152344 21.726562 C 26.625 20.710938 26.757812 19.492188 26.546875 18.1875 C 26.480469 17.753906 26.371094 17.308594 26.230469 16.859375 C 26.894531 16.453125 27.472656 15.921875 27.933594 15.300781 C 28.84375 14.066406 29.289062 12.484375 29.046875 10.855469 L 28.957031 10.265625 C 28.789062 9.148438 28.320312 8.144531 27.640625 7.332031 Z M 23.425781 3.441406 C 23.574219 3.285156 23.710938 3.234375 23.839844 3.265625 C 24.050781 3.316406 24.292969 3.511719 24.550781 3.800781 C 24.996094 4.308594 25.425781 5.046875 25.789062 5.839844 C 25.550781 5.714844 25.304688 5.609375 25.046875 5.515625 C 24.402344 4.238281 23.710938 3.675781 23.257812 5.167969 C 23.054688 5.15625 22.847656 5.160156 22.636719 5.175781 C 22.878906 4.292969 23.144531 3.738281 23.425781 3.441406 Z M 14.085938 5.367188 C 14.246094 5.015625 14.421875 4.757812 14.609375 4.644531 C 14.722656 4.578125 14.871094 4.585938 15.058594 4.695312 C 15.410156 4.894531 15.828125 5.347656 16.316406 6.121094 C 16.152344 6.160156 15.992188 6.207031 15.835938 6.257812 C 14.988281 5.011719 14.5 5.703125 14.25 7.058594 C 13.980469 7.25 13.726562 7.464844 13.496094 7.695312 C 13.613281 6.824219 13.804688 5.984375 14.085938 5.367188 Z M 25.070312 21.226562 C 24.714844 21.996094 24.09375 22.605469 23.21875 22.96875 C 22.886719 23.105469 22.519531 23.207031 22.121094 23.273438 C 21.722656 23.328125 21.34375 23.335938 20.988281 23.304688 C 20.042969 23.210938 19.273438 22.808594 18.703125 22.175781 C 18.117188 21.523438 17.734375 20.613281 17.582031 19.539062 C 17.539062 19.214844 17.515625 18.875 17.511719 18.523438 C 17.894531 18.539062 18.285156 18.519531 18.679688 18.460938 L 20.890625 18.132812 L 21.042969 19.152344 C 20.808594 19.265625 20.605469 19.4375 20.453125 19.640625 C 20.207031 19.972656 20.089844 20.398438 20.15625 20.839844 C 20.21875 21.277344 20.457031 21.648438 20.789062 21.894531 C 21.121094 22.140625 21.546875 22.257812 21.984375 22.191406 C 22.425781 22.125 22.796875 21.890625 23.042969 21.558594 C 23.285156 21.226562 23.40625 20.800781 23.339844 20.363281 C 23.273438 19.921875 23.035156 19.550781 22.703125 19.304688 C 22.496094 19.152344 22.253906 19.050781 21.996094 19.007812 L 21.84375 17.988281 L 24.007812 17.664062 C 24.402344 17.605469 24.777344 17.511719 25.140625 17.378906 C 25.242188 17.71875 25.316406 18.050781 25.371094 18.371094 C 25.542969 19.445312 25.441406 20.425781 25.070312 21.226562 Z M 21.578125 19.480469 C 21.886719 19.4375 22.1875 19.519531 22.417969 19.691406 C 22.652344 19.863281 22.820312 20.125 22.867188 20.433594 C 22.910156 20.742188 22.828125 21.039062 22.65625 21.273438 C 22.484375 21.507812 22.222656 21.671875 21.914062 21.71875 C 21.605469 21.765625 21.308594 21.683594 21.074219 21.511719 C 20.839844 21.339844 20.675781 21.078125 20.628906 20.769531 C 20.582031 20.460938 20.667969 20.160156 20.839844 19.929688 C 21.011719 19.695312 21.269531 19.527344 21.578125 19.480469 Z M 27.859375 11.035156 C 28.054688 12.335938 27.699219 13.601562 26.96875 14.589844 C 26.238281 15.574219 25.132812 16.285156 23.832031 16.480469 L 18.5 17.277344 C 15.894531 17.667969 13.445312 15.855469 13.054688 13.25 L 12.964844 12.65625 C 12.769531 11.355469 13.125 10.089844 13.855469 9.101562 C 14.585938 8.113281 15.691406 7.40625 16.996094 7.210938 L 22.324219 6.410156 C 24.929688 6.023438 27.382812 7.835938 27.773438 10.441406 Z M 25.792969 10.820312 L 25.855469 11.25 C 26 12.203125 25.738281 13.128906 25.207031 13.847656 C 24.671875 14.570312 23.863281 15.089844 22.914062 15.234375 L 19.015625 15.816406 C 17.109375 16.101562 15.320312 14.777344 15.035156 12.871094 L 14.96875 12.4375 C 14.828125 11.484375 15.085938 10.5625 15.621094 9.839844 C 16.15625 9.117188 16.960938 8.597656 17.914062 8.457031 L 21.8125 7.875 C 23.714844 7.589844 25.507812 8.914062 25.792969 10.820312 Z M 25.792969 10.820312 " fill-opacity="1" fill-rule="evenodd"/></g></g></g><g clip-path="url(#9f69a66f09)"><g clip-path="url(#10f80ad10d)"><g clip-path="url(#105d37607e)"><path fill="#1ae5be" d="M 22.417969 19.691406 C 22.652344 19.863281 22.820312 20.125 22.867188 20.433594 C 22.910156 20.742188 22.828125 21.039062 22.65625 21.273438 C 22.484375 21.503906 22.222656 21.671875 21.914062 21.71875 C 21.605469 21.765625 21.308594 21.683594 21.074219 21.507812 C 20.839844 21.335938 20.675781 21.078125 20.628906 20.765625 C 20.582031 20.457031 20.667969 20.160156 20.835938 19.925781 C 21.007812 19.695312 21.269531 19.527344 21.578125 19.480469 C 21.890625 19.4375 22.1875 19.519531 22.417969 19.691406 Z M 18.359375 11.144531 C 18.152344 11.074219 17.933594 11.0625 17.726562 11.097656 C 17.515625 11.132812 17.316406 11.21875 17.144531 11.347656 C 16.753906 11.632812 16.484375 12.128906 16.523438 12.761719 C 16.527344 12.824219 16.554688 12.878906 16.601562 12.917969 C 16.652344 12.957031 16.710938 12.972656 16.773438 12.960938 L 16.820312 12.953125 C 16.929688 12.9375 17.003906 12.839844 17 12.730469 C 16.972656 12.277344 17.15625 11.925781 17.425781 11.730469 C 17.539062 11.648438 17.667969 11.59375 17.804688 11.570312 C 17.9375 11.546875 18.078125 11.554688 18.210938 11.597656 C 18.539062 11.707031 18.839844 12.03125 18.984375 12.636719 C 19.011719 12.746094 19.117188 12.816406 19.230469 12.796875 L 19.273438 12.789062 C 19.335938 12.78125 19.382812 12.75 19.417969 12.695312 C 19.453125 12.644531 19.464844 12.589844 19.449219 12.527344 C 19.261719 11.738281 18.832031 11.300781 18.359375 11.144531 Z M 23.453125 10.402344 C 23.25 10.332031 23.03125 10.308594 22.824219 10.335938 C 22.613281 10.363281 22.410156 10.4375 22.230469 10.566406 C 21.824219 10.855469 21.542969 11.398438 21.59375 12.207031 C 21.597656 12.269531 21.625 12.320312 21.671875 12.359375 C 21.71875 12.402344 21.777344 12.417969 21.835938 12.40625 L 21.882812 12.402344 C 21.996094 12.386719 22.078125 12.289062 22.070312 12.175781 C 22.03125 11.554688 22.226562 11.15625 22.507812 10.957031 C 22.621094 10.875 22.75 10.828125 22.886719 10.808594 C 23.023438 10.792969 23.160156 10.808594 23.296875 10.855469 C 23.609375 10.960938 23.886719 11.242188 23.996094 11.683594 C 24.023438 11.792969 24.125 11.859375 24.234375 11.847656 L 24.28125 11.839844 C 24.34375 11.832031 24.394531 11.800781 24.429688 11.75 C 24.464844 11.695312 24.476562 11.636719 24.460938 11.574219 C 24.3125 10.957031 23.910156 10.5625 23.453125 10.402344 Z M 23.453125 10.402344 " fill-opacity="1" fill-rule="nonzero"/></g></g></g><g clip-path="url(#6ce09f456f)"><g clip-path="url(#0fe1a182fa)"><path stroke-linecap="butt" transform="matrix(0.744485, 0, 0, 0.744485, 5.268878, 23.453948)" fill="none" stroke-linejoin="miter" d="M 5.830198 -0.00110555 L 36.493162 -0.00110555 C 39.714767 -0.00110555 42.322483 2.611858 42.322483 5.828216 C 42.322483 9.044574 39.714767 11.657537 36.493162 11.657537 L 5.830198 11.657537 C 2.608593 11.657537 0.000876859 9.044574 0.000876859 5.828216 C 0.000876859 2.611858 2.608593 -0.00110555 5.830198 -0.00110555 Z M 5.830198 -0.00110555 " stroke="#283389" stroke-width="4" stroke-opacity="1" stroke-miterlimit="4"/></g></g><g clip-path="url(#7fd77681af)"><g clip-path="url(#cd30727351)"><g transform="matrix(1, 0, 0, 1, 6, 24)"><g clip-path="url(#8d703dfbf0)"><g clip-path="url(#56f8c2a78d)"><g clip-path="url(#517c8b3545)"><path fill="#283389" d="M 0.0234375 0.898438 L 15.019531 0.898438 L 15.019531 6.695312 L 0.0234375 6.695312 Z M 0.0234375 0.898438 " fill-opacity="1" fill-rule="nonzero"/></g></g></g></g></g></g><g transform="matrix(1, 0, 0, 1, 9, 25)"><g clip-path="url(#e3f44ac9fa)"><g fill="#1ae5be" fill-opacity="1"><g transform="translate(1.041699, 3.686576)"><g><path d="M 1.078125 0.03125 C 0.941406 0.03125 0.816406 0.0078125 0.703125 -0.03125 C 0.585938 -0.0820312 0.488281 -0.148438 0.40625 -0.234375 C 0.320312 -0.316406 0.257812 -0.414062 0.21875 -0.53125 C 0.175781 -0.644531 0.15625 -0.769531 0.15625 -0.90625 C 0.15625 -1.039062 0.175781 -1.164062 0.21875 -1.28125 C 0.257812 -1.394531 0.320312 -1.492188 0.40625 -1.578125 C 0.488281 -1.660156 0.585938 -1.722656 0.703125 -1.765625 C 0.816406 -1.816406 0.9375 -1.84375 1.0625 -1.84375 C 1.207031 -1.84375 1.335938 -1.816406 1.453125 -1.765625 C 1.566406 -1.722656 1.664062 -1.65625 1.75 -1.5625 C 1.84375 -1.46875 1.90625 -1.363281 1.9375 -1.25 L 1.6875 -1.25 C 1.632812 -1.363281 1.550781 -1.453125 1.4375 -1.515625 C 1.332031 -1.585938 1.210938 -1.625 1.078125 -1.625 C 0.941406 -1.625 0.820312 -1.59375 0.71875 -1.53125 C 0.613281 -1.46875 0.53125 -1.382812 0.46875 -1.28125 C 0.414062 -1.175781 0.390625 -1.050781 0.390625 -0.90625 C 0.390625 -0.769531 0.414062 -0.644531 0.46875 -0.53125 C 0.53125 -0.425781 0.613281 -0.34375 0.71875 -0.28125 C 0.820312 -0.21875 0.941406 -0.1875 1.078125 -0.1875 C 1.203125 -0.1875 1.3125 -0.210938 1.40625 -0.265625 C 1.5 -0.316406 1.578125 -0.382812 1.640625 -0.46875 C 1.703125 -0.550781 1.738281 -0.648438 1.75 -0.765625 L 1.015625 -0.765625 L 1.015625 -0.984375 L 2 -0.984375 C 2 -0.785156 1.957031 -0.609375 1.875 -0.453125 C 1.800781 -0.304688 1.695312 -0.1875 1.5625 -0.09375 C 1.425781 -0.0078125 1.265625 0.03125 1.078125 0.03125 Z M 1.078125 0.03125 "/></g></g></g><g fill="#1ae5be" fill-opacity="1"><g transform="translate(3.37599, 3.686576)"><g><path d="M 0.046875 0 L 0.796875 -1.8125 L 1 -1.8125 L 1.75 0 L 1.515625 0 L 1.34375 -0.40625 L 0.453125 -0.40625 L 0.28125 0 Z M 0.546875 -0.625 L 1.25 -0.625 L 0.890625 -1.5 Z M 0.546875 -0.625 "/></g></g></g><g fill="#1ae5be" fill-opacity="1"><g transform="translate(5.365729, 3.686576)"><g><path d="M 0.265625 0 L 0.265625 -1.8125 L 0.484375 -1.8125 L 1.1875 -0.734375 L 1.90625 -1.8125 L 2.109375 -1.8125 L 2.109375 0 L 1.890625 0 L 1.890625 -1.390625 L 1.28125 -0.484375 L 1.09375 -0.484375 L 0.5 -1.390625 L 0.5 0 Z M 0.265625 0 "/></g></g></g><g clip-path="url(#c07aefc485)"><g fill="#1ae5be" fill-opacity="1"><g transform="translate(7.935766, 3.686576)"><g><path d="M 0.265625 0 L 0.265625 -1.8125 L 1.359375 -1.8125 L 1.359375 -1.609375 L 0.5 -1.609375 L 0.5 -1.03125 L 1.296875 -1.03125 L 1.296875 -0.8125 L 0.5 -0.8125 L 0.5 -0.21875 L 1.390625 -0.21875 L 1.390625 0 Z M 0.265625 0 "/></g></g></g></g></g></g><g transform="matrix(1, 0, 0, 1, 22, 25)"><g clip-path="url(#05ee90ccf4)"><g clip-path="url(#d9da6d061f)"><g fill="#283389" fill-opacity="1"><g transform="translate(0.168364, 3.936568)"><g><path d="M 0.90625 0.046875 C 0.644531 0.046875 0.441406 -0.0078125 0.296875 -0.125 C 0.160156 -0.25 0.09375 -0.414062 0.09375 -0.625 L 0.640625 -0.625 C 0.640625 -0.550781 0.660156 -0.492188 0.703125 -0.453125 C 0.742188 -0.410156 0.804688 -0.390625 0.890625 -0.390625 C 0.960938 -0.390625 1.015625 -0.398438 1.046875 -0.421875 C 1.085938 -0.453125 1.109375 -0.492188 1.109375 -0.546875 C 1.109375 -0.648438 0.992188 -0.726562 0.765625 -0.78125 C 0.328125 -0.863281 0.109375 -1.066406 0.109375 -1.390625 C 0.109375 -1.566406 0.171875 -1.707031 0.296875 -1.8125 C 0.429688 -1.925781 0.613281 -1.984375 0.84375 -1.984375 C 1.007812 -1.984375 1.148438 -1.953125 1.265625 -1.890625 C 1.378906 -1.835938 1.46875 -1.757812 1.53125 -1.65625 C 1.59375 -1.5625 1.625 -1.453125 1.625 -1.328125 L 1.109375 -1.328125 C 1.109375 -1.398438 1.082031 -1.453125 1.03125 -1.484375 C 0.988281 -1.523438 0.929688 -1.546875 0.859375 -1.546875 C 0.796875 -1.546875 0.742188 -1.53125 0.703125 -1.5 C 0.660156 -1.476562 0.640625 -1.441406 0.640625 -1.390625 C 0.640625 -1.347656 0.664062 -1.304688 0.71875 -1.265625 C 0.769531 -1.234375 0.859375 -1.207031 0.984375 -1.1875 C 1.222656 -1.132812 1.394531 -1.054688 1.5 -0.953125 C 1.613281 -0.859375 1.671875 -0.726562 1.671875 -0.5625 C 1.671875 -0.375 1.601562 -0.222656 1.46875 -0.109375 C 1.332031 -0.00390625 1.144531 0.046875 0.90625 0.046875 Z M 0.90625 0.046875 "/></g></g></g></g><g fill="#283389" fill-opacity="1"><g transform="translate(1.938757, 3.936568)"><g><path d="M 0.671875 0 L 0.671875 -1.421875 L 0.078125 -1.421875 L 0.078125 -1.9375 L 1.8125 -1.9375 L 1.8125 -1.421875 L 1.21875 -1.421875 L 1.21875 0 Z M 0.671875 0 "/></g></g></g><g fill="#283389" fill-opacity="1"><g transform="translate(3.831057, 3.936568)"><g><path d="M 0.203125 0 L 0.203125 -1.9375 L 1.09375 -1.9375 C 1.25 -1.9375 1.378906 -1.90625 1.484375 -1.84375 C 1.597656 -1.789062 1.6875 -1.710938 1.75 -1.609375 C 1.8125 -1.503906 1.84375 -1.378906 1.84375 -1.234375 C 1.84375 -1.109375 1.816406 -0.992188 1.765625 -0.890625 C 1.710938 -0.785156 1.632812 -0.707031 1.53125 -0.65625 L 1.890625 0 L 1.25 0 L 0.96875 -0.546875 L 0.765625 -0.546875 L 0.765625 0 Z M 0.75 -1 L 1.015625 -1 C 1.097656 -1 1.160156 -1.019531 1.203125 -1.0625 C 1.253906 -1.101562 1.28125 -1.160156 1.28125 -1.234375 C 1.28125 -1.316406 1.253906 -1.378906 1.203125 -1.421875 C 1.160156 -1.460938 1.097656 -1.484375 1.015625 -1.484375 L 0.75 -1.484375 Z M 0.75 -1 "/></g></g></g><g fill="#283389" fill-opacity="1"><g transform="translate(5.825868, 3.936568)"><g><path d="M 0.203125 0 L 0.203125 -1.9375 L 1.53125 -1.9375 L 1.53125 -1.484375 L 0.75 -1.484375 L 0.75 -1.203125 L 1.453125 -1.203125 L 1.453125 -0.75 L 0.75 -0.75 L 0.75 -0.453125 L 1.5625 -0.453125 L 1.5625 0 Z M 0.203125 0 "/></g></g></g><g fill="#283389" fill-opacity="1"><g transform="translate(7.515917, 3.936568)"><g><path d="M 0.015625 0 L 0.765625 -1.9375 L 1.3125 -1.9375 L 2.078125 0 L 1.484375 0 L 1.375 -0.28125 L 0.703125 -0.28125 L 0.609375 0 Z M 0.828125 -0.6875 L 1.265625 -0.6875 L 1.046875 -1.28125 Z M 0.828125 -0.6875 "/></g></g></g><g clip-path="url(#468af343e3)"><g fill="#283389" fill-opacity="1"><g transform="translate(9.604926, 3.936568)"><g><path d="M 0.203125 0 L 0.203125 -1.9375 L 0.65625 -1.9375 L 1.3125 -1.015625 L 1.96875 -1.9375 L 2.421875 -1.9375 L 2.421875 0 L 1.859375 0 L 1.859375 -0.984375 L 1.5 -0.453125 L 1.125 -0.453125 L 0.75 -0.984375 L 0.75 0 Z M 0.203125 0 "/></g></g></g></g></g></g><g transform="matrix(1, 0, 0, 1, 41, 8)"><g clip-path="url(#13ac499a5d)"><g fill="#283389" fill-opacity="1"><g transform="translate(4.079584, 6.251732)"><g><path d="M 3.828125 -1.1875 C 3.867188 -1.207031 3.910156 -1.21875 3.953125 -1.21875 C 3.992188 -1.21875 4.023438 -1.203125 4.046875 -1.171875 L 4.421875 -0.609375 C 4.441406 -0.585938 4.441406 -0.554688 4.421875 -0.515625 C 4.410156 -0.484375 4.390625 -0.453125 4.359375 -0.421875 C 4.222656 -0.328125 4.070312 -0.238281 3.90625 -0.15625 C 3.738281 -0.0820312 3.566406 -0.0234375 3.390625 0.015625 C 3.210938 0.0546875 3.035156 0.078125 2.859375 0.078125 C 2.578125 0.078125 2.304688 0.0351562 2.046875 -0.046875 C 1.785156 -0.128906 1.546875 -0.242188 1.328125 -0.390625 C 1.117188 -0.546875 0.9375 -0.726562 0.78125 -0.9375 C 0.625 -1.15625 0.503906 -1.390625 0.421875 -1.640625 C 0.335938 -1.898438 0.296875 -2.171875 0.296875 -2.453125 C 0.296875 -2.734375 0.335938 -3 0.421875 -3.25 C 0.503906 -3.507812 0.625 -3.742188 0.78125 -3.953125 C 0.9375 -4.171875 1.117188 -4.351562 1.328125 -4.5 C 1.546875 -4.65625 1.785156 -4.773438 2.046875 -4.859375 C 2.304688 -4.941406 2.578125 -4.984375 2.859375 -4.984375 C 3.023438 -4.984375 3.195312 -4.960938 3.375 -4.921875 C 3.5625 -4.878906 3.738281 -4.820312 3.90625 -4.75 C 4.082031 -4.675781 4.238281 -4.582031 4.375 -4.46875 C 4.414062 -4.4375 4.4375 -4.40625 4.4375 -4.375 C 4.445312 -4.34375 4.441406 -4.3125 4.421875 -4.28125 L 4.046875 -3.734375 C 4.035156 -3.703125 4.007812 -3.679688 3.96875 -3.671875 C 3.925781 -3.671875 3.882812 -3.6875 3.84375 -3.71875 C 3.707031 -3.832031 3.550781 -3.921875 3.375 -3.984375 C 3.195312 -4.046875 3.023438 -4.078125 2.859375 -4.078125 C 2.628906 -4.078125 2.414062 -4.035156 2.21875 -3.953125 C 2.019531 -3.867188 1.84375 -3.753906 1.6875 -3.609375 C 1.53125 -3.460938 1.410156 -3.289062 1.328125 -3.09375 C 1.242188 -2.894531 1.203125 -2.679688 1.203125 -2.453125 C 1.203125 -2.222656 1.242188 -2.007812 1.328125 -1.8125 C 1.421875 -1.625 1.539062 -1.453125 1.6875 -1.296875 C 1.84375 -1.148438 2.019531 -1.035156 2.21875 -0.953125 C 2.414062 -0.867188 2.628906 -0.828125 2.859375 -0.828125 C 3.023438 -0.828125 3.191406 -0.859375 3.359375 -0.921875 C 3.535156 -0.984375 3.691406 -1.070312 3.828125 -1.1875 Z M 3.828125 -1.1875 "/></g></g></g><g fill="#283389" fill-opacity="1"><g transform="translate(12.358531, 6.251732)"><g><path d="M 3.71875 -0.796875 C 3.789062 -0.796875 3.828125 -0.757812 3.828125 -0.6875 L 3.828125 -0.109375 C 3.828125 -0.0351562 3.789062 0 3.71875 0 L 0.703125 0 C 0.617188 0 0.578125 -0.0351562 0.578125 -0.109375 L 0.578125 -4.8125 C 0.578125 -4.882812 0.617188 -4.921875 0.703125 -4.921875 L 1.390625 -4.921875 C 1.460938 -4.921875 1.5 -4.882812 1.5 -4.8125 L 1.5 -0.796875 Z M 3.71875 -0.796875 "/></g></g></g><g fill="#283389" fill-opacity="1"><g transform="translate(19.825257, 6.251732)"><g><path d="M 0.296875 -2.453125 C 0.296875 -2.734375 0.335938 -3 0.421875 -3.25 C 0.503906 -3.507812 0.625 -3.742188 0.78125 -3.953125 C 0.9375 -4.160156 1.117188 -4.34375 1.328125 -4.5 C 1.535156 -4.65625 1.765625 -4.773438 2.015625 -4.859375 C 2.273438 -4.941406 2.550781 -4.984375 2.84375 -4.984375 C 3.125 -4.984375 3.390625 -4.941406 3.640625 -4.859375 C 3.898438 -4.773438 4.132812 -4.65625 4.34375 -4.5 C 4.5625 -4.34375 4.75 -4.160156 4.90625 -3.953125 C 5.0625 -3.742188 5.179688 -3.507812 5.265625 -3.25 C 5.347656 -3 5.390625 -2.734375 5.390625 -2.453125 C 5.390625 -2.160156 5.347656 -1.890625 5.265625 -1.640625 C 5.179688 -1.390625 5.0625 -1.15625 4.90625 -0.9375 C 4.75 -0.726562 4.5625 -0.546875 4.34375 -0.390625 C 4.132812 -0.242188 3.898438 -0.128906 3.640625 -0.046875 C 3.390625 0.0351562 3.125 0.078125 2.84375 0.078125 C 2.550781 0.078125 2.273438 0.0351562 2.015625 -0.046875 C 1.765625 -0.128906 1.535156 -0.242188 1.328125 -0.390625 C 1.117188 -0.546875 0.9375 -0.726562 0.78125 -0.9375 C 0.625 -1.15625 0.503906 -1.390625 0.421875 -1.640625 C 0.335938 -1.890625 0.296875 -2.160156 0.296875 -2.453125 Z M 1.203125 -2.453125 C 1.203125 -2.222656 1.242188 -2.007812 1.328125 -1.8125 C 1.410156 -1.613281 1.523438 -1.441406 1.671875 -1.296875 C 1.828125 -1.148438 2.003906 -1.035156 2.203125 -0.953125 C 2.398438 -0.867188 2.613281 -0.828125 2.84375 -0.828125 C 3.070312 -0.828125 3.285156 -0.867188 3.484375 -0.953125 C 3.679688 -1.035156 3.851562 -1.148438 4 -1.296875 C 4.15625 -1.441406 4.273438 -1.613281 4.359375 -1.8125 C 4.441406 -2.007812 4.484375 -2.222656 4.484375 -2.453125 C 4.484375 -2.679688 4.4375 -2.894531 4.34375 -3.09375 C 4.257812 -3.289062 4.144531 -3.460938 4 -3.609375 C 3.851562 -3.753906 3.679688 -3.867188 3.484375 -3.953125 C 3.285156 -4.035156 3.070312 -4.078125 2.84375 -4.078125 C 2.613281 -4.078125 2.398438 -4.035156 2.203125 -3.953125 C 2.003906 -3.867188 1.828125 -3.753906 1.671875 -3.609375 C 1.523438 -3.460938 1.410156 -3.289062 1.328125 -3.09375 C 1.242188 -2.894531 1.203125 -2.679688 1.203125 -2.453125 Z M 1.203125 -2.453125 "/></g></g></g><g fill="#283389" fill-opacity="1"><g transform="translate(29.019974, 6.251732)"><g><path d="M 1.40625 -4.8125 L 1.40625 -2.015625 C 1.40625 -1.835938 1.429688 -1.675781 1.484375 -1.53125 C 1.546875 -1.382812 1.628906 -1.257812 1.734375 -1.15625 C 1.835938 -1.050781 1.957031 -0.96875 2.09375 -0.90625 C 2.238281 -0.84375 2.394531 -0.8125 2.5625 -0.8125 C 2.738281 -0.8125 2.894531 -0.84375 3.03125 -0.90625 C 3.164062 -0.96875 3.285156 -1.050781 3.390625 -1.15625 C 3.503906 -1.257812 3.585938 -1.382812 3.640625 -1.53125 C 3.703125 -1.675781 3.734375 -1.835938 3.734375 -2.015625 L 3.734375 -4.8125 C 3.734375 -4.882812 3.769531 -4.921875 3.84375 -4.921875 L 4.515625 -4.921875 C 4.597656 -4.921875 4.640625 -4.882812 4.640625 -4.8125 L 4.640625 -2.015625 C 4.640625 -1.703125 4.585938 -1.414062 4.484375 -1.15625 C 4.390625 -0.90625 4.25 -0.6875 4.0625 -0.5 C 3.875 -0.3125 3.65625 -0.164062 3.40625 -0.0625 C 3.15625 0.03125 2.875 0.078125 2.5625 0.078125 C 2.257812 0.078125 1.976562 0.0234375 1.71875 -0.078125 C 1.46875 -0.179688 1.25 -0.328125 1.0625 -0.515625 C 0.882812 -0.703125 0.742188 -0.921875 0.640625 -1.171875 C 0.546875 -1.429688 0.5 -1.710938 0.5 -2.015625 L 0.5 -4.8125 C 0.5 -4.882812 0.535156 -4.921875 0.609375 -4.921875 L 1.296875 -4.921875 C 1.367188 -4.921875 1.40625 -4.882812 1.40625 -4.8125 Z M 1.40625 -4.8125 "/></g></g></g><g fill="#283389" fill-opacity="1"><g transform="translate(37.67429, 6.251732)"><g><path d="M 0.578125 -0.140625 L 0.578125 -4.765625 C 0.578125 -4.816406 0.59375 -4.851562 0.625 -4.875 C 0.65625 -4.894531 0.691406 -4.90625 0.734375 -4.90625 L 2.546875 -4.90625 C 2.828125 -4.90625 3.09375 -4.863281 3.34375 -4.78125 C 3.601562 -4.707031 3.832031 -4.597656 4.03125 -4.453125 C 4.238281 -4.304688 4.414062 -4.128906 4.5625 -3.921875 C 4.71875 -3.722656 4.832031 -3.5 4.90625 -3.25 C 4.988281 -3 5.03125 -2.734375 5.03125 -2.453125 C 5.03125 -2.171875 4.988281 -1.90625 4.90625 -1.65625 C 4.832031 -1.40625 4.71875 -1.175781 4.5625 -0.96875 C 4.414062 -0.769531 4.238281 -0.597656 4.03125 -0.453125 C 3.832031 -0.304688 3.601562 -0.191406 3.34375 -0.109375 C 3.09375 -0.0351562 2.820312 0 2.53125 0 L 0.734375 0 C 0.691406 0 0.65625 -0.0078125 0.625 -0.03125 C 0.59375 -0.0625 0.578125 -0.0976562 0.578125 -0.140625 Z M 1.5 -0.859375 L 2.515625 -0.859375 C 2.753906 -0.859375 2.96875 -0.898438 3.15625 -0.984375 C 3.351562 -1.066406 3.519531 -1.179688 3.65625 -1.328125 C 3.800781 -1.472656 3.910156 -1.640625 3.984375 -1.828125 C 4.066406 -2.023438 4.109375 -2.234375 4.109375 -2.453125 C 4.109375 -2.679688 4.066406 -2.890625 3.984375 -3.078125 C 3.910156 -3.273438 3.800781 -3.445312 3.65625 -3.59375 C 3.519531 -3.738281 3.351562 -3.851562 3.15625 -3.9375 C 2.96875 -4.019531 2.757812 -4.0625 2.53125 -4.0625 L 1.5 -4.0625 Z M 1.5 -0.859375 "/></g></g></g><g clip-path="url(#107bef0b0b)"><g fill="#283389" fill-opacity="1"><g transform="translate(0.420816, 15.088002)"><g><path d="M 4.4375 -2.5 C 4.507812 -2.5 4.546875 -2.460938 4.546875 -2.390625 L 4.546875 -0.546875 C 4.546875 -0.515625 4.539062 -0.484375 4.53125 -0.453125 C 4.519531 -0.421875 4.5 -0.398438 4.46875 -0.390625 C 4.375 -0.316406 4.265625 -0.253906 4.140625 -0.203125 C 4.015625 -0.148438 3.878906 -0.101562 3.734375 -0.0625 C 3.585938 -0.0195312 3.441406 0.0078125 3.296875 0.03125 C 3.148438 0.0625 3.003906 0.078125 2.859375 0.078125 C 2.578125 0.078125 2.304688 0.0351562 2.046875 -0.046875 C 1.785156 -0.128906 1.546875 -0.242188 1.328125 -0.390625 C 1.117188 -0.546875 0.9375 -0.726562 0.78125 -0.9375 C 0.625 -1.15625 0.503906 -1.390625 0.421875 -1.640625 C 0.335938 -1.898438 0.296875 -2.171875 0.296875 -2.453125 C 0.296875 -2.734375 0.335938 -3.003906 0.421875 -3.265625 C 0.503906 -3.523438 0.625 -3.757812 0.78125 -3.96875 C 0.9375 -4.175781 1.117188 -4.351562 1.328125 -4.5 C 1.546875 -4.65625 1.785156 -4.773438 2.046875 -4.859375 C 2.304688 -4.941406 2.578125 -4.984375 2.859375 -4.984375 C 3.023438 -4.984375 3.195312 -4.960938 3.375 -4.921875 C 3.5625 -4.890625 3.738281 -4.835938 3.90625 -4.765625 C 4.082031 -4.691406 4.238281 -4.597656 4.375 -4.484375 C 4.40625 -4.460938 4.421875 -4.429688 4.421875 -4.390625 C 4.429688 -4.347656 4.425781 -4.316406 4.40625 -4.296875 L 4.046875 -3.75 C 4.023438 -3.71875 3.992188 -3.695312 3.953125 -3.6875 C 3.921875 -3.6875 3.890625 -3.703125 3.859375 -3.734375 C 3.753906 -3.816406 3.644531 -3.882812 3.53125 -3.9375 C 3.414062 -3.988281 3.300781 -4.023438 3.1875 -4.046875 C 3.070312 -4.066406 2.960938 -4.078125 2.859375 -4.078125 C 2.628906 -4.078125 2.414062 -4.035156 2.21875 -3.953125 C 2.019531 -3.867188 1.84375 -3.753906 1.6875 -3.609375 C 1.539062 -3.460938 1.421875 -3.289062 1.328125 -3.09375 C 1.242188 -2.894531 1.203125 -2.679688 1.203125 -2.453125 C 1.203125 -2.222656 1.242188 -2.003906 1.328125 -1.796875 C 1.410156 -1.597656 1.523438 -1.421875 1.671875 -1.265625 C 1.816406 -1.117188 1.988281 -1.003906 2.1875 -0.921875 C 2.394531 -0.835938 2.617188 -0.796875 2.859375 -0.796875 C 2.953125 -0.796875 3.046875 -0.804688 3.140625 -0.828125 C 3.242188 -0.847656 3.34375 -0.875 3.4375 -0.90625 C 3.53125 -0.945312 3.613281 -0.988281 3.6875 -1.03125 L 3.6875 -1.734375 L 2.84375 -1.734375 C 2.769531 -1.734375 2.734375 -1.769531 2.734375 -1.84375 L 2.734375 -2.390625 C 2.734375 -2.460938 2.769531 -2.5 2.84375 -2.5 Z M 4.4375 -2.5 "/></g></g></g></g><g fill="#283389" fill-opacity="1"><g transform="translate(8.913335, 15.088002)"><g><path d="M 4.765625 -0.15625 C 4.785156 -0.113281 4.785156 -0.078125 4.765625 -0.046875 C 4.742188 -0.015625 4.707031 0 4.65625 0 L 3.953125 0 C 3.921875 0 3.890625 -0.0078125 3.859375 -0.03125 C 3.828125 -0.0507812 3.804688 -0.0820312 3.796875 -0.125 L 3.59375 -0.59375 L 1.34375 -0.59375 L 1.140625 -0.125 C 1.117188 -0.09375 1.09375 -0.0625 1.0625 -0.03125 C 1.039062 -0.0078125 1.007812 0 0.96875 0 L 0.28125 0 C 0.226562 0 0.191406 -0.015625 0.171875 -0.046875 C 0.148438 -0.078125 0.148438 -0.113281 0.171875 -0.15625 L 2.265625 -4.859375 C 2.273438 -4.890625 2.296875 -4.914062 2.328125 -4.9375 C 2.367188 -4.96875 2.40625 -4.984375 2.4375 -4.984375 L 2.484375 -4.984375 C 2.523438 -4.984375 2.5625 -4.96875 2.59375 -4.9375 C 2.625 -4.914062 2.644531 -4.882812 2.65625 -4.84375 Z M 1.65625 -1.375 L 3.265625 -1.375 L 2.46875 -3.34375 Z M 1.65625 -1.375 "/></g></g></g><g fill="#283389" fill-opacity="1"><g transform="translate(17.354079, 15.088002)"><g><path d="M 5.859375 -0.140625 C 5.859375 -0.0859375 5.84375 -0.0507812 5.8125 -0.03125 C 5.789062 -0.0078125 5.753906 0 5.703125 0 L 5.078125 0 C 5.035156 0 5 -0.0078125 4.96875 -0.03125 C 4.945312 -0.0507812 4.9375 -0.0859375 4.9375 -0.140625 L 4.703125 -2.53125 L 3.234375 -0.0625 C 3.210938 -0.0078125 3.191406 0.0234375 3.171875 0.046875 C 3.148438 0.0664062 3.117188 0.078125 3.078125 0.078125 C 3.035156 0.078125 3.003906 0.0664062 2.984375 0.046875 C 2.972656 0.0234375 2.953125 -0.0078125 2.921875 -0.0625 L 1.46875 -2.53125 L 1.21875 -0.140625 C 1.21875 -0.0859375 1.203125 -0.0507812 1.171875 -0.03125 C 1.148438 -0.0078125 1.117188 0 1.078125 0 L 0.453125 0 C 0.398438 0 0.359375 -0.0078125 0.328125 -0.03125 C 0.304688 -0.0507812 0.300781 -0.0859375 0.3125 -0.140625 L 0.78125 -4.875 C 0.789062 -4.945312 0.832031 -4.984375 0.90625 -4.984375 L 0.921875 -4.984375 C 0.960938 -4.984375 0.988281 -4.972656 1 -4.953125 C 1.019531 -4.929688 1.039062 -4.90625 1.0625 -4.875 L 3.078125 -1.453125 L 5.09375 -4.875 C 5.113281 -4.90625 5.128906 -4.929688 5.140625 -4.953125 C 5.160156 -4.972656 5.191406 -4.984375 5.234375 -4.984375 L 5.25 -4.984375 C 5.320312 -4.984375 5.363281 -4.945312 5.375 -4.875 Z M 5.859375 -0.140625 "/></g></g></g><g fill="#283389" fill-opacity="1"><g transform="translate(27.024479, 15.088002)"><g><path d="M 1.5 -4.8125 L 1.5 -0.109375 C 1.5 -0.0351562 1.460938 0 1.390625 0 L 0.6875 0 C 0.613281 0 0.578125 -0.0351562 0.578125 -0.109375 L 0.578125 -4.8125 C 0.578125 -4.882812 0.613281 -4.921875 0.6875 -4.921875 L 1.390625 -4.921875 C 1.460938 -4.921875 1.5 -4.882812 1.5 -4.8125 Z M 1.5 -4.8125 "/></g></g></g><g fill="#283389" fill-opacity="1"><g transform="translate(32.620832, 15.088002)"><g><path d="M 4.859375 -4.921875 C 4.929688 -4.921875 4.96875 -4.882812 4.96875 -4.8125 L 4.96875 -0.09375 C 4.96875 -0.0390625 4.953125 -0.00390625 4.921875 0.015625 C 4.898438 0.046875 4.875 0.0625 4.84375 0.0625 L 4.828125 0.0625 C 4.785156 0.0625 4.75 0.0507812 4.71875 0.03125 C 4.695312 0.0078125 4.664062 -0.015625 4.625 -0.046875 L 1.5 -3.015625 L 1.5 -0.109375 C 1.5 -0.0351562 1.460938 0 1.390625 0 L 0.703125 0 C 0.617188 0 0.578125 -0.0351562 0.578125 -0.109375 L 0.578125 -4.84375 C 0.578125 -4.875 0.585938 -4.90625 0.609375 -4.9375 C 0.640625 -4.96875 0.671875 -4.984375 0.703125 -4.984375 L 0.71875 -4.984375 C 0.75 -4.984375 0.773438 -4.96875 0.796875 -4.9375 C 0.828125 -4.914062 0.863281 -4.890625 0.90625 -4.859375 L 4.046875 -1.875 L 4.046875 -4.8125 C 4.046875 -4.882812 4.082031 -4.921875 4.15625 -4.921875 Z M 4.859375 -4.921875 "/></g></g></g><g fill="#283389" fill-opacity="1"><g transform="translate(41.682876, 15.088002)"><g><path d="M 4.4375 -2.5 C 4.507812 -2.5 4.546875 -2.460938 4.546875 -2.390625 L 4.546875 -0.546875 C 4.546875 -0.515625 4.539062 -0.484375 4.53125 -0.453125 C 4.519531 -0.421875 4.5 -0.398438 4.46875 -0.390625 C 4.375 -0.316406 4.265625 -0.253906 4.140625 -0.203125 C 4.015625 -0.148438 3.878906 -0.101562 3.734375 -0.0625 C 3.585938 -0.0195312 3.441406 0.0078125 3.296875 0.03125 C 3.148438 0.0625 3.003906 0.078125 2.859375 0.078125 C 2.578125 0.078125 2.304688 0.0351562 2.046875 -0.046875 C 1.785156 -0.128906 1.546875 -0.242188 1.328125 -0.390625 C 1.117188 -0.546875 0.9375 -0.726562 0.78125 -0.9375 C 0.625 -1.15625 0.503906 -1.390625 0.421875 -1.640625 C 0.335938 -1.898438 0.296875 -2.171875 0.296875 -2.453125 C 0.296875 -2.734375 0.335938 -3.003906 0.421875 -3.265625 C 0.503906 -3.523438 0.625 -3.757812 0.78125 -3.96875 C 0.9375 -4.175781 1.117188 -4.351562 1.328125 -4.5 C 1.546875 -4.65625 1.785156 -4.773438 2.046875 -4.859375 C 2.304688 -4.941406 2.578125 -4.984375 2.859375 -4.984375 C 3.023438 -4.984375 3.195312 -4.960938 3.375 -4.921875 C 3.5625 -4.890625 3.738281 -4.835938 3.90625 -4.765625 C 4.082031 -4.691406 4.238281 -4.597656 4.375 -4.484375 C 4.40625 -4.460938 4.421875 -4.429688 4.421875 -4.390625 C 4.429688 -4.347656 4.425781 -4.316406 4.40625 -4.296875 L 4.046875 -3.75 C 4.023438 -3.71875 3.992188 -3.695312 3.953125 -3.6875 C 3.921875 -3.6875 3.890625 -3.703125 3.859375 -3.734375 C 3.753906 -3.816406 3.644531 -3.882812 3.53125 -3.9375 C 3.414062 -3.988281 3.300781 -4.023438 3.1875 -4.046875 C 3.070312 -4.066406 2.960938 -4.078125 2.859375 -4.078125 C 2.628906 -4.078125 2.414062 -4.035156 2.21875 -3.953125 C 2.019531 -3.867188 1.84375 -3.753906 1.6875 -3.609375 C 1.539062 -3.460938 1.421875 -3.289062 1.328125 -3.09375 C 1.242188 -2.894531 1.203125 -2.679688 1.203125 -2.453125 C 1.203125 -2.222656 1.242188 -2.003906 1.328125 -1.796875 C 1.410156 -1.597656 1.523438 -1.421875 1.671875 -1.265625 C 1.816406 -1.117188 1.988281 -1.003906 2.1875 -0.921875 C 2.394531 -0.835938 2.617188 -0.796875 2.859375 -0.796875 C 2.953125 -0.796875 3.046875 -0.804688 3.140625 -0.828125 C 3.242188 -0.847656 3.34375 -0.875 3.4375 -0.90625 C 3.53125 -0.945312 3.613281 -0.988281 3.6875 -1.03125 L 3.6875 -1.734375 L 2.84375 -1.734375 C 2.769531 -1.734375 2.734375 -1.769531 2.734375 -1.84375 L 2.734375 -2.390625 C 2.734375 -2.460938 2.769531 -2.5 2.84375 -2.5 Z M 4.4375 -2.5 "/></g></g></g></g></g></svg>